<svg width="36" height="36" viewBox="0 0 36 36" fill="none" xmlns="http://www.w3.org/2000/svg">
<path d="M32.4977 35.2536C29.7569 32.3952 20.1642 22.9149 20.1642 22.9149C19.1854 23.6983 18.0597 24.3185 16.7872 24.7755C15.5147 25.2325 14.1606 25.461 12.725 25.461C9.16852 25.461 6.15889 24.2284 3.69612 21.7633C1.23335 19.2981 0.00130616 16.2872 1.03581e-06 12.7305C-0.00130409 9.17378 1.23074 6.16286 3.69612 3.69772C6.1615 1.23257 9.17113 0 12.725 0C16.2788 0 19.2891 1.23257 21.7558 3.69772C24.2225 6.16286 25.4539 9.17378 25.45 12.7305C25.45 14.1667 25.2216 15.5214 24.7648 16.7944C24.308 18.0675 23.688 19.1937 22.905 20.1729C22.905 20.1729 32.3813 29.7697 35.2384 32.5117C36.6865 33.9014 35.7096 34.7772 35.2384 35.2536C34.7673 35.73 33.8493 36.6633 32.4977 35.2536ZM12.725 21.5439C15.1721 21.5439 17.2525 20.6874 18.9661 18.9743C20.6797 17.2612 21.5359 15.18 21.5346 12.7305C21.5333 10.281 20.6771 8.20039 18.9661 6.48863C17.2551 4.77687 15.1747 3.91968 12.725 3.91707C10.2753 3.91446 8.19554 4.77165 6.48583 6.48863C4.77611 8.20561 3.9193 10.2862 3.91538 12.7305C3.91147 15.1747 4.76828 17.256 6.48583 18.9743C8.20338 20.6926 10.2831 21.5491 12.725 21.5439Z" fill="#F0EDD9"/>
</svg>
