<svg width="34" height="40" viewBox="0 0 34 40" fill="none" xmlns="http://www.w3.org/2000/svg">
<path d="M17 0C14.7963 0 12.683 0.847563 11.1248 2.35624C9.56656 3.86491 8.69117 5.91111 8.69117 8.04469V10.7263C8.69117 10.7263 2.22866 10.7263 1.30563 11.6201C0.382606 12.514 -0.540846 38.4358 0.382355 39.3296C1.30556 40.2235 32.6944 40.2235 33.6176 39.3296C34.5408 38.4358 33.6176 12.514 32.6944 11.6201C31.7712 10.7263 25.3088 10.7263 25.3088 10.7263V8.04469C25.3088 5.91111 24.4334 3.86491 22.8752 2.35624C21.317 0.847563 19.2036 0 17 0ZM21.616 8.04469V10.7263H12.384V8.04469C12.384 6.85937 12.8703 5.72259 13.736 4.88444C14.6016 4.04629 15.7757 3.57542 17 3.57542C18.2242 3.57542 19.3983 4.04629 20.264 4.88444C21.1297 5.72259 21.616 6.85937 21.616 8.04469ZM8.69117 19.6648V14.3017H12.384V19.6648H8.69117ZM21.616 19.6648V14.3017H25.3088V19.6648H21.616Z" fill="#F0EDD9"/>
</svg>
