<svg width="50" height="59" viewBox="0 0 50 59" fill="none" xmlns="http://www.w3.org/2000/svg">
<path d="M25 0C21.7593 0 18.6514 1.25016 16.3599 3.47545C14.0685 5.70074 12.7811 8.71888 12.7811 11.8659V15.8212C12.7811 15.8212 3.27744 15.8212 1.92005 17.1397C0.562655 18.4581 -0.795362 56.6927 0.562287 58.0112C1.91994 59.3296 48.08 59.3296 49.4376 58.0112C50.7953 56.6927 49.4377 18.4581 48.08 17.1397C46.7224 15.8212 37.2188 15.8212 37.2188 15.8212V11.8659C37.2188 8.71888 35.9315 5.70074 33.64 3.47545C31.3485 1.25016 28.2406 0 25 0ZM31.7882 11.8659V15.8212H18.2117V11.8659C18.2117 10.1176 18.9269 8.44082 20.2 7.20455C21.473 5.96827 23.1996 5.27374 25 5.27374C26.8003 5.27374 28.5269 5.96827 29.8 7.20455C31.073 8.44082 31.7882 10.1176 31.7882 11.8659ZM12.7811 29.0056V21.095H18.2117V29.0056H12.7811ZM31.7882 29.0056V21.095H37.2188V29.0056H31.7882Z" fill="#780116"/>
</svg>
